<?xml version="1.0" encoding="utf-8"?>
<!-- Generator: Adobe Illustrator 24.1.0, SVG Export Plug-In . SVG Version: 6.00 Build 0)  -->
<svg version="1.1" xmlns="http://www.w3.org/2000/svg" xmlns:xlink="http://www.w3.org/1999/xlink" x="0px" y="0px"
	 viewBox="0 0 241.1 250" style="enable-background:new 0 0 241.1 250;" xml:space="preserve">
<style type="text/css">
	.st0{display:none;}
	.st1{display:inline;fill:none;stroke:#FFFFFF;stroke-width:3;stroke-miterlimit:10;}
	.st2{display:inline;}
	.st3{fill:none;stroke:#FFFFFF;stroke-width:3;stroke-miterlimit:10;}
	.st4{fill:none;stroke:#FFFFFF;stroke-width:2;stroke-miterlimit:10;}
	.st5{fill:#FFFFFF;}
</style>
<g id="Layer_1" class="st0">
	<path class="st1" d="M152.3,149.5L132.3,120c-0.4-0.6-0.8-1.1-1.3-1.5c4.8-7.6,5.1-17.2,0.1-24.7c-4.4-6.4-11.8-9.7-19.5-9.4
		l8,11.7l-5.8,13.4l-14.6,0.5l-8.7-12.8c-4.4,7.5-4.6,16.8,0.3,24c5.1,7.4,14.1,10.6,23,9c0.2,0.6,0.6,1.2,0.9,1.8l20.1,29.5
		c3,4.5,9.5,5.4,14.3,2.1l0,0C153.9,160.3,155.4,154,152.3,149.5z M139.7,160.7l-3.7-5.4l3.2-6.1l6.9-0.7l3.7,5.4l-3.2,6.1
		L139.7,160.7z"/>
	<g class="st2">
		<path class="st3" d="M206.5,125c0-1.6,0-1.6,0-1.6c-0.1-1.7,1.7-4.4,4-6l26.6-18.2c2.3-1.6,3.5-5,2.8-7.6l-3.1-9.6
			c-1-2.6-4-4.6-6.7-4.5l-32.2,0.9c-2.7,0.1-5.8-1-6.8-2.5s-3.1-7.2-2.1-9.8l10.8-30.3c0.9-2.6-0.1-6.1-2.2-7.8l-8.2-6
			c-2.3-1.5-5.9-1.4-8.1,0.3l-25.5,19.6c-2.2,1.7-5.3,2.6-7,2s-6.7-4.1-7.5-6.7L132,6.2c-0.8-2.6-3.7-4.9-6.4-5.1
			c0,0-1.7-0.1-5.1-0.1s-5.1,0.1-5.1,0.1c-2.7,0.2-5.6,2.5-6.4,5.1L100,37c-0.8,2.6-2.8,5.2-4.5,5.7c-1.7,0.5-7.8,0.7-10-1L60,22.1
			c-2.2-1.7-5.8-1.8-8.1-0.3l-8.2,6c-2.2,1.7-3.2,5.2-2.2,7.8L52.2,66c0.9,2.6,0.8,5.8-0.3,7.2s-5.9,5.1-8.7,5.1l-32.2-0.9
			c-2.7-0.1-5.8,2-6.7,4.5l-3.1,9.6c-0.7,2.6,0.5,6.1,2.8,7.6l26.6,18.2c2.3,1.6,4.1,4.3,4,6c0,0,0,0,0,1.6s0,1.6,0,1.6
			c0.1,1.7-1.7,4.4-4,6L4,150.8c-2.3,1.6-3.5,5-2.8,7.6l3.1,9.6c1,2.6,4,4.6,6.7,4.5l32.2-0.9c2.7-0.1,5.8,1,6.8,2.5
			s3.1,7.2,2.1,9.8l-10.8,30.3c-0.9,2.6,0.1,6.1,2.2,7.8l8.2,6c2.3,1.5,5.9,1.4,8.1-0.3l25.5-19.6c2.2-1.7,5.3-2.6,7-2
			c1.6,0.6,6.7,4.1,7.5,6.7l9.1,30.8c0.8,2.6,3.7,4.9,6.4,5.1c0,0,1.7,0.1,5.1,0.1s5.1-0.1,5.1-0.1c2.7-0.2,5.6-2.5,6.4-5.1
			l9.1-30.8c0.8-2.6,2.8-5.2,4.5-5.7s7.8-0.7,10,1l25.5,19.6c2.2,1.7,5.8,1.8,8.1,0.3l8.2-6c2.2-1.7,3.2-5.2,2.2-7.8L188.9,184
			c-0.9-2.6-0.8-5.8,0.3-7.2c1.1-1.4,5.9-5.1,8.7-5.1l32.2,0.9c2.7,0.1,5.8-2,6.7-4.5l3.1-9.6c0.7-2.6-0.5-6.1-2.8-7.6l-26.6-18.2
			c-2.3-1.6-4.1-4.3-4-6C206.5,126.6,206.5,126.6,206.5,125z M120.5,176c-28.2,0-51-22.8-51-51s22.8-51,51-51s51,22.8,51,51
			S148.7,176,120.5,176z"/>
	</g>
</g>
<g id="Layer_2">
	<g>
		<path class="st4" d="M200.8,125c0-1.5,0-1.5,0-1.5c-0.1-1.6,1-3.7,2.3-4.7l27.6-18.9c1.4-0.9,2.1-3,1.7-4.6l-3.9-12.2
			c-0.6-1.5-2.4-2.8-4-2.7L191,81.4c-1.6,0-3.8-1-4.7-2.4c-0.9-1.4-3.1-6-2.6-7.6L195,40c0.6-1.6-0.1-3.7-1.3-4.7l-10.4-7.5
			c-1.4-0.9-3.6-0.8-4.9,0.2l-26.5,20.4c-1.3,1-3.6,1.4-5.2,0.8c-1.5-0.6-6.1-3.1-6.6-4.6l-9.4-32c-0.5-1.6-2.2-3-3.8-3.1
			c0,0-3.2-0.2-6.4-0.2c-3.2,0-6.4,0.2-6.4,0.2c-1.6,0.1-3.4,1.5-3.8,3.1l-9.4,32c-0.5,1.6-2.1,3.3-3.7,3.7s-6.7,1.1-8,0.1
			L62.7,27.9c-1.3-1-3.5-1.1-4.9-0.2l-10.4,7.5c-1.3,1-1.9,3.1-1.3,4.7l11.2,31.4c0.6,1.6,0.2,3.9-0.8,5.2c-1,1.3-4.8,4.8-6.4,4.8
			l-33.4-0.9c-1.6,0-3.5,1.2-4,2.7L8.7,95.4C8.2,97,9,99,10.3,100l27.6,18.9c1.4,0.9,2.4,3,2.3,4.7c0,0,0,0,0,1.5s0,1.5,0,1.5
			c0.1,1.6-1,3.7-2.3,4.7L10.3,150c-1.4,0.9-2.1,3-1.7,4.6l3.9,12.2c0.6,1.5,2.4,2.8,4,2.7l33.4-0.9c1.6,0,3.8,1,4.7,2.4
			s3.1,6,2.6,7.6L46.1,210c-0.6,1.6,0.1,3.7,1.3,4.7l10.4,7.5c1.4,0.9,3.6,0.8,4.9-0.2l26.5-20.4c1.3-1,3.6-1.4,5.2-0.8
			c1.5,0.6,6.1,3.1,6.6,4.6l9.4,32c0.5,1.6,2.2,3,3.8,3.1c0,0,3.2,0.2,6.4,0.2c3.2,0,6.4-0.2,6.4-0.2c1.6-0.1,3.4-1.5,3.8-3.1
			l9.4-32c0.5-1.6,2.1-3.3,3.7-3.7s6.7-1.1,8-0.1l26.5,20.4c1.3,1,3.5,1.1,4.9,0.2l10.4-7.5c1.3-1,1.9-3.1,1.3-4.7l-11.2-31.4
			c-0.6-1.6-0.2-3.9,0.8-5.2s4.8-4.8,6.4-4.8l33.4,0.9c1.6,0,3.5-1.2,4-2.7l3.9-12.2c0.4-1.6-0.3-3.7-1.7-4.6l-27.6-18.9
			c-1.4-0.9-2.4-3-2.3-4.7C200.8,126.5,200.8,126.5,200.8,125z M120.5,172.6c-26.3,0-47.6-21.3-47.6-47.6s21.3-47.6,47.6-47.6
			s47.6,21.3,47.6,47.6S146.8,172.6,120.5,172.6z"/>
	</g>
	<g>
		<path class="st5" d="M119.3,141.6v-32.1h-0.2l-9.1,32.1h-3.4l-9-32.1h-0.2v32.1h-3.4v-37h5.4l8.8,31.2h0.2l8.7-31.2h5.6v37H119.3z
			"/>
		<path class="st5" d="M149.5,114.6c0,1.7-0.3,3.2-0.8,4.5c-0.5,1.3-1.2,2.4-2,3.3c-0.8,0.9-1.8,1.5-2.9,2c-1.1,0.5-2.2,0.7-3.4,0.7
			H135v16.5h-3.6v-37h8.7c1.1,0,2.2,0.2,3.3,0.5c1.1,0.3,2.1,0.9,3,1.6c0.9,0.8,1.6,1.8,2.2,3.1
			C149.2,111.1,149.5,112.7,149.5,114.6z M145.9,114.6c0-1.2-0.2-2.3-0.5-3.1c-0.3-0.9-0.7-1.6-1.3-2.2c-0.6-0.6-1.2-1-1.9-1.2
			c-0.7-0.3-1.5-0.4-2.3-0.4H135v14.2h5c1.6,0,3-0.6,4.2-1.8C145.3,118.9,145.9,117.1,145.9,114.6z"/>
	</g>
</g>
</svg>
